<mxfile host="drawio-plugin" modified="2023-04-14T11:54:42.972Z" agent="5.0 (Macintosh; Intel Mac OS X 10_15_7) AppleWebKit/537.36 (KHTML, like Gecko) Chrome/104.0.5112.102 Safari/537.36" etag="2qKD6UjGXXFX80O_uhrX" version="20.5.3" type="embed"><diagram name="Page-1" id="efa7a0a1-bf9b-a30e-e6df-94a7791c09e9"><mxGraphModel dx="2362" dy="843" grid="1" gridSize="10" guides="1" tooltips="1" connect="1" arrows="1" fold="1" page="1" pageScale="1" pageWidth="1169" pageHeight="827" background="none" math="0" shadow="0"><root><mxCell id="0"/><mxCell id="1" parent="0"/><mxCell id="yMqSgsh0TC7EGv7iNOsN-120" value="" style="endArrow=ERzeroToMany;startArrow=ERone;html=1;rounded=0;startFill=0;endFill=0;orthogonal=0;jumpStyle=none;edgeStyle=orthogonalEdgeStyle;exitX=0;exitY=0.25;exitDx=0;exitDy=0;" parent="1" source="20" target="yMqSgsh0TC7EGv7iNOsN-121" edge="1"><mxGeometry width="50" height="50" relative="1" as="geometry"><mxPoint x="810" y="271.2499999999998" as="sourcePoint"/><mxPoint x="1320" y="201.24999999999977" as="targetPoint"/></mxGeometry></mxCell><mxCell id="yMqSgsh0TC7EGv7iNOsN-126" value="" style="endArrow=ERzeroToMany;startArrow=ERone;html=1;rounded=0;startFill=0;endFill=0;orthogonal=0;jumpStyle=none;edgeStyle=orthogonalEdgeStyle;" parent="1" source="20" target="yMqSgsh0TC7EGv7iNOsN-127" edge="1"><mxGeometry width="50" height="50" relative="1" as="geometry"><mxPoint x="790" y="343.7499999999998" as="sourcePoint"/><mxPoint x="1330" y="211.24999999999977" as="targetPoint"/></mxGeometry></mxCell><mxCell id="yMqSgsh0TC7EGv7iNOsN-171" value="Frånvaro" style="edgeLabel;html=1;align=center;verticalAlign=middle;resizable=0;points=[];" parent="yMqSgsh0TC7EGv7iNOsN-126" vertex="1" connectable="0"><mxGeometry x="-0.7319" relative="1" as="geometry"><mxPoint x="11" y="11" as="offset"/></mxGeometry></mxCell><mxCell id="yMqSgsh0TC7EGv7iNOsN-134" value="" style="endArrow=ERzeroToMany;startArrow=ERzeroToOne;html=1;rounded=0;startFill=0;endFill=0;orthogonal=0;jumpStyle=none;edgeStyle=orthogonalEdgeStyle;entryX=1;entryY=0.25;entryDx=0;entryDy=0;exitX=0;exitY=0.75;exitDx=0;exitDy=0;" parent="1" source="20" target="yMqSgsh0TC7EGv7iNOsN-133" edge="1"><mxGeometry width="50" height="50" relative="1" as="geometry"><mxPoint x="790" y="521.2499999999998" as="sourcePoint"/><mxPoint x="1340" y="398.7499999999998" as="targetPoint"/><Array as="points"><mxPoint x="240" y="135"/><mxPoint x="240" y="424"/></Array></mxGeometry></mxCell><mxCell id="yMqSgsh0TC7EGv7iNOsN-168" value="Lön" style="edgeLabel;html=1;align=center;verticalAlign=middle;resizable=0;points=[];" parent="yMqSgsh0TC7EGv7iNOsN-134" vertex="1" connectable="0"><mxGeometry x="-0.7084" y="-1" relative="1" as="geometry"><mxPoint x="25" y="-8" as="offset"/></mxGeometry></mxCell><mxCell id="yMqSgsh0TC7EGv7iNOsN-345" value="Omfattning" style="edgeLabel;html=1;align=center;verticalAlign=middle;resizable=0;points=[];" parent="yMqSgsh0TC7EGv7iNOsN-134" vertex="1" connectable="0"><mxGeometry x="-0.7084" y="-1" relative="1" as="geometry"><mxPoint x="25" y="-84" as="offset"/></mxGeometry></mxCell><mxCell id="yMqSgsh0TC7EGv7iNOsN-348" value="Tillägg för" style="edgeLabel;html=1;align=center;verticalAlign=middle;resizable=0;points=[];" parent="yMqSgsh0TC7EGv7iNOsN-134" vertex="1" connectable="0"><mxGeometry x="-0.7084" y="-1" relative="1" as="geometry"><mxPoint x="-95" y="336" as="offset"/></mxGeometry></mxCell><mxCell id="yMqSgsh0TC7EGv7iNOsN-359" value="Lön för" style="edgeLabel;html=1;align=center;verticalAlign=middle;resizable=0;points=[];" parent="yMqSgsh0TC7EGv7iNOsN-134" vertex="1" connectable="0"><mxGeometry x="0.7786" relative="1" as="geometry"><mxPoint x="-10" y="39" as="offset"/></mxGeometry></mxCell><mxCell id="yMqSgsh0TC7EGv7iNOsN-136" value="&lt;p style=&quot;margin: 0px; margin-top: 4px; text-align: center; text-decoration: underline;&quot;&gt;&lt;strong&gt;Hemvistperiod&lt;/strong&gt;&lt;/p&gt;&lt;hr&gt;&lt;p style=&quot;margin: 0px; margin-left: 8px;&quot;&gt;Id&lt;/p&gt;&lt;p style=&quot;margin: 0px; margin-left: 8px;&quot;&gt;&lt;span style=&quot;background-color: initial;&quot;&gt;Fromdatum&lt;/span&gt;&lt;br&gt;&lt;/p&gt;&lt;p style=&quot;margin: 0px; margin-left: 8px;&quot;&gt;Tomdatum&lt;/p&gt;" style="verticalAlign=top;align=left;overflow=fill;fontSize=12;fontFamily=Helvetica;html=1;strokeColor=#003366;shadow=0;fillColor=#FFFF99;fontColor=#003366" parent="1" vertex="1"><mxGeometry x="680" y="191.25" width="160" height="90" as="geometry"/></mxCell><mxCell id="yMqSgsh0TC7EGv7iNOsN-137" value="" style="endArrow=ERmany;startArrow=ERone;html=1;rounded=0;startFill=0;endFill=0;orthogonal=0;jumpStyle=none;edgeStyle=orthogonalEdgeStyle;entryX=0;entryY=0.5;entryDx=0;entryDy=0;" parent="1" source="yMqSgsh0TC7EGv7iNOsN-305" target="yMqSgsh0TC7EGv7iNOsN-136" edge="1"><mxGeometry width="50" height="50" relative="1" as="geometry"><mxPoint x="750" y="491.2499999999998" as="sourcePoint"/><mxPoint x="1310" y="556.2499999999998" as="targetPoint"/></mxGeometry></mxCell><mxCell id="yMqSgsh0TC7EGv7iNOsN-170" value="Hemvist" style="edgeLabel;html=1;align=center;verticalAlign=middle;resizable=0;points=[];" parent="yMqSgsh0TC7EGv7iNOsN-137" vertex="1" connectable="0"><mxGeometry x="-0.8387" relative="1" as="geometry"><mxPoint x="20" y="9" as="offset"/></mxGeometry></mxCell><mxCell id="yMqSgsh0TC7EGv7iNOsN-352" value="För avtal" style="edgeLabel;html=1;align=center;verticalAlign=middle;resizable=0;points=[];" parent="yMqSgsh0TC7EGv7iNOsN-137" vertex="1" connectable="0"><mxGeometry x="0.5412" relative="1" as="geometry"><mxPoint x="9" y="14" as="offset"/></mxGeometry></mxCell><mxCell id="yMqSgsh0TC7EGv7iNOsN-138" value="" style="endArrow=ERzeroToMany;startArrow=ERone;html=1;rounded=0;startFill=0;endFill=0;orthogonal=0;jumpStyle=none;edgeStyle=orthogonalEdgeStyle;entryX=1;entryY=0.5;entryDx=0;entryDy=0;exitX=0;exitY=0.25;exitDx=0;exitDy=0;" parent="1" source="19" target="yMqSgsh0TC7EGv7iNOsN-136" edge="1"><mxGeometry width="50" height="50" relative="1" as="geometry"><mxPoint x="790" y="343.7499999999998" as="sourcePoint"/><mxPoint x="1020" y="736.2499999999998" as="targetPoint"/><Array as="points"><mxPoint x="920" y="416"/><mxPoint x="920" y="236"/></Array></mxGeometry></mxCell><mxCell id="yMqSgsh0TC7EGv7iNOsN-203" value="Anknutna &lt;br&gt;personer" style="edgeLabel;html=1;align=center;verticalAlign=middle;resizable=0;points=[];" parent="yMqSgsh0TC7EGv7iNOsN-138" vertex="1" connectable="0"><mxGeometry x="-0.7346" y="-1" relative="1" as="geometry"><mxPoint x="-1" y="-35" as="offset"/></mxGeometry></mxCell><mxCell id="yMqSgsh0TC7EGv7iNOsN-353" value="Knyter till" style="edgeLabel;html=1;align=center;verticalAlign=middle;resizable=0;points=[];" parent="yMqSgsh0TC7EGv7iNOsN-138" vertex="1" connectable="0"><mxGeometry x="0.72" y="1" relative="1" as="geometry"><mxPoint as="offset"/></mxGeometry></mxCell><mxCell id="yMqSgsh0TC7EGv7iNOsN-143" value="" style="endArrow=ERzeroToMany;startArrow=ERone;html=1;rounded=0;startFill=0;endFill=0;orthogonal=0;jumpStyle=none;edgeStyle=orthogonalEdgeStyle;" parent="1" source="yMqSgsh0TC7EGv7iNOsN-304" target="yMqSgsh0TC7EGv7iNOsN-140" edge="1"><mxGeometry width="50" height="50" relative="1" as="geometry"><mxPoint x="490" y="521.2499999999998" as="sourcePoint"/><mxPoint x="490" y="601.2499999999998" as="targetPoint"/></mxGeometry></mxCell><mxCell id="yMqSgsh0TC7EGv7iNOsN-180" value="Ansvarar för" style="edgeLabel;html=1;align=center;verticalAlign=middle;resizable=0;points=[];" parent="yMqSgsh0TC7EGv7iNOsN-143" vertex="1" connectable="0"><mxGeometry x="0.5732" y="1" relative="1" as="geometry"><mxPoint as="offset"/></mxGeometry></mxCell><mxCell id="yMqSgsh0TC7EGv7iNOsN-202" value="Ansvariga" style="edgeLabel;html=1;align=center;verticalAlign=middle;resizable=0;points=[];" parent="yMqSgsh0TC7EGv7iNOsN-143" vertex="1" connectable="0"><mxGeometry x="-0.5731" y="-1" relative="1" as="geometry"><mxPoint as="offset"/></mxGeometry></mxCell><mxCell id="yMqSgsh0TC7EGv7iNOsN-145" value="" style="endArrow=ERzeroToMany;startArrow=ERone;html=1;rounded=0;startFill=0;endFill=0;orthogonal=0;jumpStyle=none;exitX=0;exitY=0.75;exitDx=0;exitDy=0;edgeStyle=orthogonalEdgeStyle;entryX=1;entryY=0.5;entryDx=0;entryDy=0;" parent="1" source="yMqSgsh0TC7EGv7iNOsN-253" target="yMqSgsh0TC7EGv7iNOsN-147" edge="1"><mxGeometry width="50" height="50" relative="1" as="geometry"><mxPoint x="660" y="973.7500000000002" as="sourcePoint"/><mxPoint x="570" y="610" as="targetPoint"/><Array as="points"><mxPoint x="640" y="491"/><mxPoint x="640" y="704"/></Array></mxGeometry></mxCell><mxCell id="yMqSgsh0TC7EGv7iNOsN-346" value="Servicefunktioner" style="edgeLabel;html=1;align=center;verticalAlign=middle;resizable=0;points=[];" parent="yMqSgsh0TC7EGv7iNOsN-145" vertex="1" connectable="0"><mxGeometry x="-0.8306" y="-1" relative="1" as="geometry"><mxPoint x="-8" y="-30" as="offset"/></mxGeometry></mxCell><mxCell id="yMqSgsh0TC7EGv7iNOsN-350" value="Utförs åt" style="edgeLabel;html=1;align=center;verticalAlign=middle;resizable=0;points=[];" parent="yMqSgsh0TC7EGv7iNOsN-145" vertex="1" connectable="0"><mxGeometry x="0.8248" relative="1" as="geometry"><mxPoint x="-13" as="offset"/></mxGeometry></mxCell><mxCell id="yMqSgsh0TC7EGv7iNOsN-351" value="Rolltilldelningar" style="edgeLabel;html=1;align=center;verticalAlign=middle;resizable=0;points=[];" parent="yMqSgsh0TC7EGv7iNOsN-145" vertex="1" connectable="0"><mxGeometry x="-0.8281" y="1" relative="1" as="geometry"><mxPoint x="-25" as="offset"/></mxGeometry></mxCell><mxCell id="yMqSgsh0TC7EGv7iNOsN-146" value="" style="endArrow=ERzeroToMany;startArrow=ERone;html=1;rounded=0;startFill=0;endFill=0;orthogonal=0;jumpStyle=none;edgeStyle=orthogonalEdgeStyle;entryX=0.5;entryY=0;entryDx=0;entryDy=0;" parent="1" source="yMqSgsh0TC7EGv7iNOsN-268" target="yMqSgsh0TC7EGv7iNOsN-147" edge="1"><mxGeometry width="50" height="50" relative="1" as="geometry"><mxPoint x="390" y="501.25" as="sourcePoint"/><mxPoint x="1030" y="956.2499999999998" as="targetPoint"/></mxGeometry></mxCell><mxCell id="yMqSgsh0TC7EGv7iNOsN-183" value="Gäller person" style="edgeLabel;html=1;align=center;verticalAlign=middle;resizable=0;points=[];" parent="yMqSgsh0TC7EGv7iNOsN-146" vertex="1" connectable="0"><mxGeometry x="0.35" y="1" relative="1" as="geometry"><mxPoint x="-1" y="31" as="offset"/></mxGeometry></mxCell><mxCell id="yMqSgsh0TC7EGv7iNOsN-149" value="" style="endArrow=ERzeroToMany;startArrow=ERone;html=1;rounded=0;startFill=0;endFill=0;orthogonal=0;jumpStyle=none;edgeStyle=orthogonalEdgeStyle;exitX=0;exitY=0.75;exitDx=0;exitDy=0;" parent="1" source="yMqSgsh0TC7EGv7iNOsN-148" target="yMqSgsh0TC7EGv7iNOsN-251" edge="1"><mxGeometry width="50" height="50" relative="1" as="geometry"><mxPoint x="890" y="901.25" as="sourcePoint"/><mxPoint x="590" y="750" as="targetPoint"/><Array as="points"><mxPoint x="660" y="631"/><mxPoint x="660" y="764"/></Array></mxGeometry></mxCell><mxCell id="yMqSgsh0TC7EGv7iNOsN-349" value="Roll" style="edgeLabel;html=1;align=center;verticalAlign=middle;resizable=0;points=[];" parent="yMqSgsh0TC7EGv7iNOsN-149" vertex="1" connectable="0"><mxGeometry x="0.8" relative="1" as="geometry"><mxPoint as="offset"/></mxGeometry></mxCell><mxCell id="yMqSgsh0TC7EGv7iNOsN-357" value="Tilldelad&lt;br&gt;via" style="edgeLabel;html=1;align=center;verticalAlign=middle;resizable=0;points=[];" parent="yMqSgsh0TC7EGv7iNOsN-149" vertex="1" connectable="0"><mxGeometry x="-0.7576" relative="1" as="geometry"><mxPoint as="offset"/></mxGeometry></mxCell><mxCell id="yMqSgsh0TC7EGv7iNOsN-155" value="" style="endArrow=ERoneToMany;startArrow=ERzeroToMany;html=1;rounded=0;startFill=0;endFill=0;orthogonal=0;edgeStyle=orthogonalEdgeStyle;entryX=0;entryY=0.75;entryDx=0;entryDy=0;" parent="1" source="yMqSgsh0TC7EGv7iNOsN-153" target="19" edge="1"><mxGeometry x="-1" y="-282" width="50" height="50" relative="1" as="geometry"><mxPoint x="500" y="991.2499999999998" as="sourcePoint"/><mxPoint x="940" y="450" as="targetPoint"/><Array as="points"><mxPoint x="890" y="356"/><mxPoint x="890" y="456"/></Array><mxPoint x="270" y="202" as="offset"/></mxGeometry></mxCell><mxCell id="yMqSgsh0TC7EGv7iNOsN-163" value="" style="endArrow=ERzeroToMany;startArrow=ERone;html=1;rounded=0;startFill=0;endFill=0;orthogonal=0;jumpStyle=none;exitX=0.25;exitY=0;exitDx=0;exitDy=0;entryX=0.25;entryY=1;entryDx=0;entryDy=0;edgeStyle=orthogonalEdgeStyle;" parent="1" source="19" target="yMqSgsh0TC7EGv7iNOsN-321" edge="1"><mxGeometry width="50" height="50" relative="1" as="geometry"><mxPoint x="1300" y="361.25" as="sourcePoint"/><mxPoint x="1290" y="361.25" as="targetPoint"/></mxGeometry></mxCell><mxCell id="yMqSgsh0TC7EGv7iNOsN-164" value="Överliggande" style="edgeLabel;html=1;align=center;verticalAlign=middle;resizable=0;points=[];" parent="yMqSgsh0TC7EGv7iNOsN-163" vertex="1" connectable="0"><mxGeometry x="-0.5902" y="-2" relative="1" as="geometry"><mxPoint as="offset"/></mxGeometry></mxCell><mxCell id="yMqSgsh0TC7EGv7iNOsN-166" value="Barn" style="edgeLabel;html=1;align=center;verticalAlign=middle;resizable=0;points=[];" parent="yMqSgsh0TC7EGv7iNOsN-163" vertex="1" connectable="0"><mxGeometry x="0.4049" relative="1" as="geometry"><mxPoint y="-27" as="offset"/></mxGeometry></mxCell><mxCell id="yMqSgsh0TC7EGv7iNOsN-211" value="" style="endArrow=ERzeroToMany;startArrow=ERzeroToMany;html=1;rounded=0;startFill=0;endFill=0;orthogonal=0;jumpStyle=none;edgeStyle=orthogonalEdgeStyle;entryX=1;entryY=0.25;entryDx=0;entryDy=0;" parent="1" source="yMqSgsh0TC7EGv7iNOsN-153" target="yMqSgsh0TC7EGv7iNOsN-147" edge="1"><mxGeometry width="50" height="50" relative="1" as="geometry"><mxPoint x="1230" y="501.25" as="sourcePoint"/><mxPoint x="570" y="608.2770270270271" as="targetPoint"/></mxGeometry></mxCell><mxCell id="yMqSgsh0TC7EGv7iNOsN-212" value="Bemannar" style="edgeLabel;html=1;align=center;verticalAlign=middle;resizable=0;points=[];" parent="yMqSgsh0TC7EGv7iNOsN-211" vertex="1" connectable="0"><mxGeometry x="0.8758" relative="1" as="geometry"><mxPoint x="1" y="-14" as="offset"/></mxGeometry></mxCell><mxCell id="yMqSgsh0TC7EGv7iNOsN-213" value="Bemannas via" style="edgeLabel;html=1;align=center;verticalAlign=middle;resizable=0;points=[];" parent="yMqSgsh0TC7EGv7iNOsN-211" vertex="1" connectable="0"><mxGeometry x="-0.8306" y="-1" relative="1" as="geometry"><mxPoint x="-15" y="-15" as="offset"/></mxGeometry></mxCell><mxCell id="yMqSgsh0TC7EGv7iNOsN-221" value="&lt;p style=&quot;margin: 0px; margin-top: 4px; text-align: center; text-decoration: underline;&quot;&gt;&lt;strong&gt;Konteringsperiod&lt;/strong&gt;&lt;/p&gt;&lt;hr&gt;&lt;p style=&quot;margin: 0px; margin-left: 8px;&quot;&gt;Id&lt;/p&gt;&lt;p style=&quot;margin: 0px; margin-left: 8px;&quot;&gt;&lt;span style=&quot;background-color: initial;&quot;&gt;Percent&lt;/span&gt;&lt;/p&gt;&lt;p style=&quot;margin: 0px; margin-left: 8px;&quot;&gt;&lt;span style=&quot;background-color: initial;&quot;&gt;Fromdatum&lt;/span&gt;&lt;br&gt;&lt;/p&gt;&lt;p style=&quot;margin: 0px; margin-left: 8px;&quot;&gt;Tomdatum&lt;/p&gt;&lt;p style=&quot;margin: 0px; margin-left: 8px;&quot;&gt;&lt;br&gt;&lt;/p&gt;" style="verticalAlign=top;align=left;overflow=fill;fontSize=12;fontFamily=Helvetica;html=1;strokeColor=#d79b00;shadow=0;fillColor=#ffe6cc;" parent="1" vertex="1"><mxGeometry x="50" y="240" width="160" height="108.75" as="geometry"/></mxCell><mxCell id="yMqSgsh0TC7EGv7iNOsN-222" value="" style="endArrow=ERzeroToMany;startArrow=ERone;html=1;rounded=0;startFill=0;endFill=0;orthogonal=0;jumpStyle=none;edgeStyle=orthogonalEdgeStyle;" parent="1" source="yMqSgsh0TC7EGv7iNOsN-133" target="yMqSgsh0TC7EGv7iNOsN-221" edge="1"><mxGeometry width="50" height="50" relative="1" as="geometry"><mxPoint x="490" y="-48.75" as="sourcePoint"/><mxPoint x="380" y="86.25" as="targetPoint"/></mxGeometry></mxCell><mxCell id="yMqSgsh0TC7EGv7iNOsN-224" value="" style="endArrow=ERzeroToMany;startArrow=ERone;html=1;rounded=0;startFill=0;endFill=0;orthogonal=0;jumpStyle=none;edgeStyle=orthogonalEdgeStyle;entryX=1;entryY=0.75;entryDx=0;entryDy=0;exitX=0;exitY=0.75;exitDx=0;exitDy=0;" parent="1" source="yMqSgsh0TC7EGv7iNOsN-147" target="yMqSgsh0TC7EGv7iNOsN-246" edge="1"><mxGeometry width="50" height="50" relative="1" as="geometry"><mxPoint x="570" y="152.76162790697663" as="sourcePoint"/><mxPoint x="840" y="39.73837209302337" as="targetPoint"/><Array as="points"><mxPoint x="250" y="729"/><mxPoint x="250" y="729"/></Array></mxGeometry></mxCell><mxCell id="yMqSgsh0TC7EGv7iNOsN-225" value="Beräknad&lt;br&gt;Omfattning" style="edgeLabel;html=1;align=center;verticalAlign=middle;resizable=0;points=[];" parent="yMqSgsh0TC7EGv7iNOsN-224" vertex="1" connectable="0"><mxGeometry x="-0.6" relative="1" as="geometry"><mxPoint y="1" as="offset"/></mxGeometry></mxCell><mxCell id="yMqSgsh0TC7EGv7iNOsN-241" value="" style="endArrow=ERzeroToMany;startArrow=ERone;html=1;rounded=0;startFill=0;endFill=0;orthogonal=0;jumpStyle=none;edgeStyle=orthogonalEdgeStyle;exitX=1;exitY=0.5;exitDx=0;exitDy=0;entryX=0;entryY=0.5;entryDx=0;entryDy=0;" parent="1" source="yMqSgsh0TC7EGv7iNOsN-269" target="yMqSgsh0TC7EGv7iNOsN-313" edge="1"><mxGeometry width="50" height="50" relative="1" as="geometry"><mxPoint x="570" y="195" as="sourcePoint"/><mxPoint x="1050" y="247.5" as="targetPoint"/></mxGeometry></mxCell><mxCell id="yMqSgsh0TC7EGv7iNOsN-243" value="Ansvar via rolltilldelning" style="edgeLabel;html=1;align=center;verticalAlign=middle;resizable=0;points=[];" parent="yMqSgsh0TC7EGv7iNOsN-241" vertex="1" connectable="0"><mxGeometry x="0.7651" y="-1" relative="1" as="geometry"><mxPoint x="-30" as="offset"/></mxGeometry></mxCell><mxCell id="yMqSgsh0TC7EGv7iNOsN-343" value="Medför ansvar" style="edgeLabel;html=1;align=center;verticalAlign=middle;resizable=0;points=[];" parent="yMqSgsh0TC7EGv7iNOsN-241" vertex="1" connectable="0"><mxGeometry x="-0.6695" y="-2" relative="1" as="geometry"><mxPoint x="-20" y="-1" as="offset"/></mxGeometry></mxCell><mxCell id="yMqSgsh0TC7EGv7iNOsN-244" value="" style="endArrow=ERzeroToMany;startArrow=ERzeroToOne;html=1;rounded=0;startFill=0;endFill=0;orthogonal=0;jumpStyle=none;edgeStyle=orthogonalEdgeStyle;entryX=1;entryY=0.75;entryDx=0;entryDy=0;exitX=0;exitY=0.25;exitDx=0;exitDy=0;" parent="1" source="yMqSgsh0TC7EGv7iNOsN-147" target="yMqSgsh0TC7EGv7iNOsN-133" edge="1"><mxGeometry width="50" height="50" relative="1" as="geometry"><mxPoint x="490" y="141.25" as="sourcePoint"/><mxPoint x="490" y="86.24999999999977" as="targetPoint"/><Array as="points"><mxPoint x="240" y="679"/><mxPoint x="240" y="486"/></Array></mxGeometry></mxCell><mxCell id="yMqSgsh0TC7EGv7iNOsN-245" value="Befattningstillägg" style="edgeLabel;html=1;align=center;verticalAlign=middle;resizable=0;points=[];" parent="yMqSgsh0TC7EGv7iNOsN-244" vertex="1" connectable="0"><mxGeometry x="-0.65" y="-1" relative="1" as="geometry"><mxPoint x="1" y="2" as="offset"/></mxGeometry></mxCell><mxCell id="yMqSgsh0TC7EGv7iNOsN-255" value="&lt;p style=&quot;margin: 0px; margin-top: 4px; text-align: center; text-decoration: underline;&quot;&gt;&lt;strong&gt;Tagg&lt;/strong&gt;&lt;/p&gt;&lt;hr&gt;&lt;p style=&quot;margin: 0px; margin-left: 8px;&quot;&gt;Issuer&lt;/p&gt;&lt;p style=&quot;margin: 0px; margin-left: 8px;&quot;&gt;Type&lt;/p&gt;&lt;p style=&quot;margin: 0px; margin-left: 8px;&quot;&gt;Value&lt;/p&gt;&lt;p style=&quot;margin: 0px; margin-left: 8px;&quot;&gt;Name&lt;/p&gt;" style="verticalAlign=top;align=left;overflow=fill;fontSize=12;fontFamily=Helvetica;html=1;strokeColor=#000000;shadow=0;fillColor=#FFFFFF;fontColor=#003366" parent="1" vertex="1"><mxGeometry x="-200" y="515" width="160" height="102.5" as="geometry"/></mxCell><mxCell id="yMqSgsh0TC7EGv7iNOsN-306" value="Gäller person" style="endArrow=ERzeroToMany;startArrow=ERone;html=1;rounded=0;startFill=0;endFill=0;orthogonal=0;jumpStyle=none;" parent="1" source="21" target="yMqSgsh0TC7EGv7iNOsN-305" edge="1"><mxGeometry x="0.3151" width="50" height="50" relative="1" as="geometry"><mxPoint x="480" y="251.25" as="sourcePoint"/><mxPoint x="520" y="191.25" as="targetPoint"/><mxPoint as="offset"/></mxGeometry></mxCell><mxCell id="yMqSgsh0TC7EGv7iNOsN-307" value="Omfattas av avtal" style="edgeLabel;html=1;align=center;verticalAlign=middle;resizable=0;points=[];" parent="yMqSgsh0TC7EGv7iNOsN-306" vertex="1" connectable="0"><mxGeometry x="-0.5492" relative="1" as="geometry"><mxPoint x="-1" y="1" as="offset"/></mxGeometry></mxCell><mxCell id="yMqSgsh0TC7EGv7iNOsN-322" value="" style="endArrow=ERzeroToMany;startArrow=ERone;html=1;rounded=0;startFill=0;endFill=0;orthogonal=0;jumpStyle=none;exitX=0.75;exitY=0;exitDx=0;exitDy=0;edgeStyle=orthogonalEdgeStyle;entryX=0.75;entryY=1;entryDx=0;entryDy=0;" parent="1" source="19" target="yMqSgsh0TC7EGv7iNOsN-321" edge="1"><mxGeometry width="50" height="50" relative="1" as="geometry"><mxPoint x="1080" y="401.25" as="sourcePoint"/><mxPoint x="1080" y="171.25" as="targetPoint"/></mxGeometry></mxCell><mxCell id="yMqSgsh0TC7EGv7iNOsN-323" value="Underliggande" style="edgeLabel;html=1;align=center;verticalAlign=middle;resizable=0;points=[];" parent="yMqSgsh0TC7EGv7iNOsN-322" vertex="1" connectable="0"><mxGeometry x="-0.6098" y="-1" relative="1" as="geometry"><mxPoint y="9" as="offset"/></mxGeometry></mxCell><mxCell id="yMqSgsh0TC7EGv7iNOsN-341" value="Förälder" style="edgeLabel;html=1;align=center;verticalAlign=middle;resizable=0;points=[];" parent="yMqSgsh0TC7EGv7iNOsN-322" vertex="1" connectable="0"><mxGeometry x="0.6" relative="1" as="geometry"><mxPoint y="-5" as="offset"/></mxGeometry></mxCell><mxCell id="yMqSgsh0TC7EGv7iNOsN-325" value="" style="group" parent="1" vertex="1" connectable="0"><mxGeometry x="760" y="560" width="160" height="125" as="geometry"/></mxCell><mxCell id="yMqSgsh0TC7EGv7iNOsN-148" value="&lt;p style=&quot;margin: 0px; margin-top: 4px; text-align: center; text-decoration: underline;&quot;&gt;&lt;strong&gt;Roll&lt;/strong&gt;&lt;/p&gt;&lt;hr&gt;&lt;p style=&quot;margin: 0px; margin-left: 8px;&quot;&gt;Id&lt;/p&gt;&lt;p style=&quot;margin: 0px; margin-left: 8px;&quot;&gt;Name&lt;/p&gt;" style="verticalAlign=top;align=left;overflow=fill;fontSize=12;fontFamily=Helvetica;html=1;strokeColor=#003366;shadow=0;fillColor=#CCFF99;fontColor=#003366" parent="yMqSgsh0TC7EGv7iNOsN-325" vertex="1"><mxGeometry width="160" height="95" as="geometry"/></mxCell><mxCell id="yMqSgsh0TC7EGv7iNOsN-312" value="&lt;p style=&quot;margin: 0px; margin-top: 4px; text-align: center; text-decoration: underline;&quot;&gt;&lt;b&gt;Typningar (tagg)&lt;/b&gt;&lt;/p&gt;" style="verticalAlign=top;align=left;overflow=fill;fontSize=12;fontFamily=Helvetica;html=1;strokeColor=#000000;shadow=0;fillColor=#FFFFFF;fontColor=#003366" parent="yMqSgsh0TC7EGv7iNOsN-325" vertex="1"><mxGeometry y="95" width="160" height="25" as="geometry"/></mxCell><mxCell id="yMqSgsh0TC7EGv7iNOsN-329" value="" style="group" parent="1" vertex="1" connectable="0"><mxGeometry x="400" y="30" width="160" height="171.25" as="geometry"/></mxCell><mxCell id="20" value="&lt;p style=&quot;margin: 0px; margin-top: 4px; text-align: center; text-decoration: underline;&quot;&gt;&lt;strong&gt;Anknytningsavtal&lt;/strong&gt;&lt;/p&gt;&lt;hr&gt;&lt;p style=&quot;margin: 0px; margin-left: 8px;&quot;&gt;Id&lt;/p&gt;&lt;p style=&quot;margin: 0px; margin-left: 8px;&quot;&gt;Beskrivning&lt;/p&gt;&lt;p style=&quot;border-color: var(--border-color); margin: 0px 0px 0px 8px;&quot;&gt;Fromdatum&lt;/p&gt;&lt;p style=&quot;border-color: var(--border-color); margin: 0px 0px 0px 8px;&quot;&gt;Tomdatum&lt;/p&gt;" style="verticalAlign=top;align=left;overflow=fill;fontSize=12;fontFamily=Helvetica;html=1;strokeColor=#003366;shadow=0;fillColor=#FFFF99;fontColor=#003366" parent="yMqSgsh0TC7EGv7iNOsN-329" vertex="1"><mxGeometry width="160" height="140" as="geometry"/></mxCell><mxCell id="yMqSgsh0TC7EGv7iNOsN-305" value="&lt;p style=&quot;margin: 0px; margin-top: 4px; text-align: center; text-decoration: underline;&quot;&gt;&lt;b&gt;Typningar (tagg)&lt;/b&gt;&lt;/p&gt;" style="verticalAlign=top;align=left;overflow=fill;fontSize=12;fontFamily=Helvetica;html=1;strokeColor=#000000;shadow=0;fillColor=#FFFFFF;fontColor=#003366" parent="yMqSgsh0TC7EGv7iNOsN-329" vertex="1"><mxGeometry y="141.25" width="160" height="18.75" as="geometry"/></mxCell><mxCell id="yMqSgsh0TC7EGv7iNOsN-330" value="" style="group" parent="1" vertex="1" connectable="0"><mxGeometry x="50" y="30" width="160" height="130" as="geometry"/></mxCell><mxCell id="yMqSgsh0TC7EGv7iNOsN-121" value="&lt;p style=&quot;margin: 0px; margin-top: 4px; text-align: center; text-decoration: underline;&quot;&gt;&lt;strong&gt;Omfattningsperiod&lt;/strong&gt;&lt;/p&gt;&lt;hr&gt;&lt;p style=&quot;margin: 0px; margin-left: 8px;&quot;&gt;Id&lt;/p&gt;&lt;p style=&quot;margin: 0px; margin-left: 8px;&quot;&gt;Omfattning&lt;/p&gt;&lt;p style=&quot;margin: 0px; margin-left: 8px;&quot;&gt;Fromdatum&lt;/p&gt;&lt;p style=&quot;margin: 0px; margin-left: 8px;&quot;&gt;Tomdatum&lt;/p&gt;" style="verticalAlign=top;align=left;overflow=fill;fontSize=12;fontFamily=Helvetica;html=1;strokeColor=#003366;shadow=0;fillColor=#FFFF99;fontColor=#003366" parent="yMqSgsh0TC7EGv7iNOsN-330" vertex="1"><mxGeometry width="160" height="100" as="geometry"/></mxCell><mxCell id="yMqSgsh0TC7EGv7iNOsN-309" value="&lt;p style=&quot;margin: 0px; margin-top: 4px; text-align: center; text-decoration: underline;&quot;&gt;&lt;b&gt;Typningar (tagg)&lt;/b&gt;&lt;/p&gt;" style="verticalAlign=top;align=left;overflow=fill;fontSize=12;fontFamily=Helvetica;html=1;strokeColor=#000000;shadow=0;fillColor=#FFFFFF;fontColor=#003366" parent="yMqSgsh0TC7EGv7iNOsN-330" vertex="1"><mxGeometry y="100" width="160" height="20" as="geometry"/></mxCell><mxCell id="yMqSgsh0TC7EGv7iNOsN-331" value="" style="group" parent="1" vertex="1" connectable="0"><mxGeometry x="680" y="316.25" width="160" height="110" as="geometry"/></mxCell><mxCell id="yMqSgsh0TC7EGv7iNOsN-153" value="&lt;p style=&quot;margin: 0px; margin-top: 4px; text-align: center; text-decoration: underline;&quot;&gt;&lt;strong&gt;Servicefunktion&lt;/strong&gt;&lt;/p&gt;&lt;hr&gt;&lt;p style=&quot;margin: 0px; margin-left: 8px;&quot;&gt;Id&lt;/p&gt;&lt;p style=&quot;margin: 0px; margin-left: 8px;&quot;&gt;Name&lt;/p&gt;" style="verticalAlign=top;align=left;overflow=fill;fontSize=12;fontFamily=Helvetica;html=1;strokeColor=#003366;shadow=0;fillColor=#CC99FF;fontColor=#003366" parent="yMqSgsh0TC7EGv7iNOsN-331" vertex="1"><mxGeometry width="160" height="80" as="geometry"/></mxCell><mxCell id="yMqSgsh0TC7EGv7iNOsN-254" value="&lt;p style=&quot;margin: 0px; margin-top: 4px; text-align: center; text-decoration: underline;&quot;&gt;&lt;strong&gt;Kontaktvägar&lt;/strong&gt;&lt;/p&gt;" style="verticalAlign=top;align=left;overflow=fill;fontSize=12;fontFamily=Helvetica;html=1;strokeColor=#003366;shadow=0;fillColor=#FFCCCC;fontColor=#003366" parent="yMqSgsh0TC7EGv7iNOsN-331" vertex="1"><mxGeometry y="80" width="160" height="20" as="geometry"/></mxCell><mxCell id="yMqSgsh0TC7EGv7iNOsN-332" value="" style="group" parent="1" vertex="1" connectable="0"><mxGeometry x="960" y="660" width="160" height="120" as="geometry"/></mxCell><mxCell id="yMqSgsh0TC7EGv7iNOsN-140" value="&lt;p style=&quot;margin: 0px; margin-top: 4px; text-align: center; text-decoration: underline;&quot;&gt;&lt;strong&gt;Ansvarsperiod&lt;/strong&gt;&lt;/p&gt;&lt;hr&gt;&lt;p style=&quot;margin: 0px; margin-left: 8px;&quot;&gt;Id&lt;/p&gt;&lt;p style=&quot;margin: 0px; margin-left: 8px;&quot;&gt;&lt;span style=&quot;background-color: initial;&quot;&gt;Fromdatum&lt;/span&gt;&lt;br&gt;&lt;/p&gt;&lt;p style=&quot;margin: 0px; margin-left: 8px;&quot;&gt;Tomdatum&lt;/p&gt;" style="verticalAlign=top;align=left;overflow=fill;fontSize=12;fontFamily=Helvetica;html=1;strokeColor=#003366;shadow=0;fillColor=#CCFF99;fontColor=#003366" parent="yMqSgsh0TC7EGv7iNOsN-332" vertex="1"><mxGeometry width="160" height="90" as="geometry"/></mxCell><mxCell id="yMqSgsh0TC7EGv7iNOsN-313" value="&lt;p style=&quot;margin: 0px; margin-top: 4px; text-align: center; text-decoration: underline;&quot;&gt;&lt;b&gt;Typningar (tagg)&lt;/b&gt;&lt;/p&gt;" style="verticalAlign=top;align=left;overflow=fill;fontSize=12;fontFamily=Helvetica;html=1;strokeColor=#000000;shadow=0;fillColor=#FFFFFF;fontColor=#003366" parent="yMqSgsh0TC7EGv7iNOsN-332" vertex="1"><mxGeometry y="90" width="160" height="20" as="geometry"/></mxCell><mxCell id="yMqSgsh0TC7EGv7iNOsN-333" value="" style="group" parent="1" vertex="1" connectable="0"><mxGeometry x="680" y="30" width="160" height="130" as="geometry"/></mxCell><mxCell id="yMqSgsh0TC7EGv7iNOsN-127" value="&lt;p style=&quot;margin: 0px; margin-top: 4px; text-align: center; text-decoration: underline;&quot;&gt;&lt;strong&gt;Frånvaroperiod&lt;/strong&gt;&lt;/p&gt;&lt;hr&gt;&lt;p style=&quot;margin: 0px; margin-left: 8px;&quot;&gt;Id&lt;/p&gt;&lt;p style=&quot;margin: 0px; margin-left: 8px;&quot;&gt;Omfattning&lt;/p&gt;&lt;p style=&quot;margin: 0px; margin-left: 8px;&quot;&gt;Fromdatum&lt;/p&gt;&lt;p style=&quot;margin: 0px; margin-left: 8px;&quot;&gt;Tomdatum&lt;/p&gt;" style="verticalAlign=top;align=left;overflow=fill;fontSize=12;fontFamily=Helvetica;html=1;strokeColor=#003366;shadow=0;fillColor=#FFFF99;fontColor=#003366" parent="yMqSgsh0TC7EGv7iNOsN-333" vertex="1"><mxGeometry width="160" height="100" as="geometry"/></mxCell><mxCell id="yMqSgsh0TC7EGv7iNOsN-310" value="&lt;p style=&quot;margin: 0px; margin-top: 4px; text-align: center; text-decoration: underline;&quot;&gt;&lt;b&gt;Typningar (tagg)&lt;/b&gt;&lt;/p&gt;" style="verticalAlign=top;align=left;overflow=fill;fontSize=12;fontFamily=Helvetica;html=1;strokeColor=#000000;shadow=0;fillColor=#FFFFFF;fontColor=#003366" parent="yMqSgsh0TC7EGv7iNOsN-333" vertex="1"><mxGeometry y="100" width="160" height="20" as="geometry"/></mxCell><mxCell id="yMqSgsh0TC7EGv7iNOsN-337" value="" style="group" parent="1" vertex="1" connectable="0"><mxGeometry x="50" y="653.75" width="160" height="130" as="geometry"/></mxCell><mxCell id="yMqSgsh0TC7EGv7iNOsN-246" value="&lt;p style=&quot;margin: 0px; margin-top: 4px; text-align: center; text-decoration: underline;&quot;&gt;&lt;strong&gt;Ber. Omfattningsperiod&lt;/strong&gt;&lt;/p&gt;&lt;hr&gt;&lt;p style=&quot;margin: 0px; margin-left: 8px;&quot;&gt;Id&lt;/p&gt;&lt;p style=&quot;margin: 0px; margin-left: 8px;&quot;&gt;Omfattning&lt;/p&gt;&lt;p style=&quot;margin: 0px; margin-left: 8px;&quot;&gt;Fromdatum&lt;/p&gt;&lt;p style=&quot;margin: 0px; margin-left: 8px;&quot;&gt;Tomdatum&lt;/p&gt;" style="verticalAlign=top;align=left;overflow=fill;fontSize=12;fontFamily=Helvetica;html=1;strokeColor=#003366;shadow=0;fillColor=#CCFF99;fontColor=#003366" parent="yMqSgsh0TC7EGv7iNOsN-337" vertex="1"><mxGeometry width="160" height="100" as="geometry"/></mxCell><mxCell id="yMqSgsh0TC7EGv7iNOsN-319" value="&lt;p style=&quot;margin: 0px; margin-top: 4px; text-align: center; text-decoration: underline;&quot;&gt;&lt;b&gt;Typningar (tagg)&lt;/b&gt;&lt;/p&gt;" style="verticalAlign=top;align=left;overflow=fill;fontSize=12;fontFamily=Helvetica;html=1;strokeColor=#000000;shadow=0;fillColor=#FFFFFF;fontColor=#003366" parent="yMqSgsh0TC7EGv7iNOsN-337" vertex="1"><mxGeometry y="100" width="160" height="20" as="geometry"/></mxCell><mxCell id="yMqSgsh0TC7EGv7iNOsN-339" value="" style="group" parent="1" vertex="1" connectable="0"><mxGeometry x="-200" y="320" width="160" height="130" as="geometry"/></mxCell><mxCell id="yMqSgsh0TC7EGv7iNOsN-250" value="&lt;p style=&quot;margin: 0px; margin-top: 4px; text-align: center; text-decoration: underline;&quot;&gt;&lt;strong&gt;Kontaktväg&lt;/strong&gt;&lt;/p&gt;&lt;hr&gt;&lt;p style=&quot;margin: 0px; margin-left: 8px;&quot;&gt;Id&lt;/p&gt;&lt;p style=&quot;margin: 0px; margin-left: 8px;&quot;&gt;Name&lt;/p&gt;&lt;p style=&quot;margin: 0px; margin-left: 8px;&quot;&gt;Primär?&lt;/p&gt;" style="verticalAlign=top;align=left;overflow=fill;fontSize=12;fontFamily=Helvetica;html=1;strokeColor=#003366;shadow=0;fillColor=#FFCCCC;fontColor=#003366" parent="yMqSgsh0TC7EGv7iNOsN-339" vertex="1"><mxGeometry width="160" height="100" as="geometry"/></mxCell><mxCell id="yMqSgsh0TC7EGv7iNOsN-338" value="&lt;p style=&quot;margin: 0px; margin-top: 4px; text-align: center; text-decoration: underline;&quot;&gt;&lt;b&gt;Typningar (tagg)&lt;/b&gt;&lt;/p&gt;" style="verticalAlign=top;align=left;overflow=fill;fontSize=12;fontFamily=Helvetica;html=1;strokeColor=#000000;shadow=0;fillColor=#FFFFFF;fontColor=#003366" parent="yMqSgsh0TC7EGv7iNOsN-339" vertex="1"><mxGeometry y="100" width="160" height="30" as="geometry"/></mxCell><mxCell id="yMqSgsh0TC7EGv7iNOsN-340" value="" style="group" parent="1" vertex="1" connectable="0"><mxGeometry x="50" y="392.4999999999998" width="160" height="155.00000000000023" as="geometry"/></mxCell><mxCell id="yMqSgsh0TC7EGv7iNOsN-133" value="&lt;p style=&quot;margin: 0px; margin-top: 4px; text-align: center; text-decoration: underline;&quot;&gt;&lt;strong&gt;Ersättningsperiod&lt;/strong&gt;&lt;/p&gt;&lt;hr&gt;&lt;p style=&quot;margin: 0px; margin-left: 8px;&quot;&gt;Id&lt;/p&gt;&lt;p style=&quot;margin: 0px; margin-left: 8px;&quot;&gt;Amount&lt;/p&gt;&lt;p style=&quot;margin: 0px; margin-left: 8px;&quot;&gt;PayRateInterval&lt;/p&gt;&lt;p style=&quot;margin: 0px; margin-left: 8px;&quot;&gt;Fromdatum&lt;/p&gt;&lt;p style=&quot;margin: 0px; margin-left: 8px;&quot;&gt;Tomdatum&lt;/p&gt;" style="verticalAlign=top;align=left;overflow=fill;fontSize=12;fontFamily=Helvetica;html=1;strokeColor=#d79b00;shadow=0;fillColor=#ffe6cc;" parent="yMqSgsh0TC7EGv7iNOsN-340" vertex="1"><mxGeometry width="160" height="125" as="geometry"/></mxCell><mxCell id="yMqSgsh0TC7EGv7iNOsN-311" value="&lt;p style=&quot;margin: 0px; margin-top: 4px; text-align: center; text-decoration: underline;&quot;&gt;&lt;b&gt;Typningar (tagg)&lt;/b&gt;&lt;/p&gt;" style="verticalAlign=top;align=left;overflow=fill;fontSize=12;fontFamily=Helvetica;html=1;strokeColor=#000000;shadow=0;fillColor=#FFFFFF;fontColor=#003366" parent="yMqSgsh0TC7EGv7iNOsN-340" vertex="1"><mxGeometry y="125" width="160" height="25" as="geometry"/></mxCell><mxCell id="yMqSgsh0TC7EGv7iNOsN-354" value="" style="group" parent="1" vertex="1" connectable="0"><mxGeometry x="400" y="280" width="160" height="190" as="geometry"/></mxCell><mxCell id="yMqSgsh0TC7EGv7iNOsN-268" value="&lt;p style=&quot;margin: 0px; margin-top: 4px; text-align: center; text-decoration: underline;&quot;&gt;&lt;b&gt;Typningar (tagg)&lt;/b&gt;&lt;/p&gt;" style="verticalAlign=top;align=left;overflow=fill;fontSize=12;fontFamily=Helvetica;html=1;strokeColor=#000000;shadow=0;fillColor=#FFFFFF;fontColor=#003366" parent="yMqSgsh0TC7EGv7iNOsN-354" vertex="1"><mxGeometry y="170" width="160" height="20" as="geometry"/></mxCell><mxCell id="yMqSgsh0TC7EGv7iNOsN-266" value="&lt;p style=&quot;margin: 0px; margin-top: 4px; text-align: center; text-decoration: underline;&quot;&gt;&lt;strong&gt;?!Akademiska meriter (tagg)&lt;/strong&gt;&lt;/p&gt;" style="verticalAlign=top;align=left;overflow=fill;fontSize=12;fontFamily=Helvetica;html=1;strokeColor=#000000;shadow=0;fillColor=#FFFFFF;fontColor=#003366" parent="yMqSgsh0TC7EGv7iNOsN-354" vertex="1"><mxGeometry y="150" width="160" height="20" as="geometry"/></mxCell><mxCell id="21" value="&lt;p style=&quot;margin: 0px; margin-top: 4px; text-align: center; text-decoration: underline;&quot;&gt;&lt;strong&gt;Person&lt;/strong&gt;&lt;/p&gt;&lt;hr&gt;&lt;p style=&quot;margin: 0px; margin-left: 8px;&quot;&gt;Name&lt;/p&gt;&lt;p style=&quot;margin: 0px; margin-left: 8px;&quot;&gt;Id&lt;/p&gt;&lt;p style=&quot;margin: 0px; margin-left: 8px;&quot;&gt;MergedFromIds&lt;/p&gt;&lt;p style=&quot;margin: 0px; margin-left: 8px;&quot;&gt;CorrelationIds&lt;/p&gt;&lt;p style=&quot;margin: 0px; margin-left: 8px;&quot;&gt;previousCorrelationIds&lt;/p&gt;&lt;p style=&quot;margin: 0px; margin-left: 8px;&quot;&gt;&lt;br&gt;&lt;/p&gt;&lt;p style=&quot;margin: 0px; margin-left: 8px;&quot;&gt;&lt;br&gt;&lt;/p&gt;" style="verticalAlign=top;align=left;overflow=fill;fontSize=12;fontFamily=Helvetica;html=1;strokeColor=#003366;shadow=0;fillColor=#D4E1F5;fontColor=#003366" parent="yMqSgsh0TC7EGv7iNOsN-354" vertex="1"><mxGeometry width="160" height="130" as="geometry"/></mxCell><mxCell id="yMqSgsh0TC7EGv7iNOsN-252" value="&lt;p style=&quot;margin: 0px; margin-top: 4px; text-align: center; text-decoration: underline;&quot;&gt;&lt;strong&gt;Kontaktvägar&lt;/strong&gt;&lt;/p&gt;" style="verticalAlign=top;align=left;overflow=fill;fontSize=12;fontFamily=Helvetica;html=1;strokeColor=#003366;shadow=0;fillColor=#FFCCCC;fontColor=#003366" parent="yMqSgsh0TC7EGv7iNOsN-354" vertex="1"><mxGeometry y="130" width="160" height="20" as="geometry"/></mxCell><mxCell id="yMqSgsh0TC7EGv7iNOsN-280" value="" style="endArrow=none;startArrow=ERone;html=1;rounded=0;startFill=0;endFill=0;orthogonal=0;jumpStyle=none;" parent="yMqSgsh0TC7EGv7iNOsN-354" source="21" target="yMqSgsh0TC7EGv7iNOsN-252" edge="1"><mxGeometry width="50" height="50" relative="1" as="geometry"><mxPoint x="600" y="1450" as="sourcePoint"/><mxPoint x="600" y="1560" as="targetPoint"/></mxGeometry></mxCell><mxCell id="yMqSgsh0TC7EGv7iNOsN-281" value="Rolltilldelningar" style="edgeLabel;html=1;align=center;verticalAlign=middle;resizable=0;points=[];" parent="yMqSgsh0TC7EGv7iNOsN-280" vertex="1" connectable="0"><mxGeometry x="-0.3" y="1" relative="1" as="geometry"><mxPoint y="76" as="offset"/></mxGeometry></mxCell><mxCell id="yMqSgsh0TC7EGv7iNOsN-355" value="" style="group" parent="1" vertex="1" connectable="0"><mxGeometry x="960" y="31.25" width="160" height="120.09" as="geometry"/></mxCell><mxCell id="yMqSgsh0TC7EGv7iNOsN-161" value="&lt;p style=&quot;margin: 0px; margin-top: 4px; text-align: center; text-decoration: underline;&quot;&gt;&lt;strong&gt;Orgenhetsrelation&lt;/strong&gt;&lt;/p&gt;&lt;hr&gt;&lt;p style=&quot;margin: 0px; margin-left: 8px;&quot;&gt;Id&lt;/p&gt;&lt;p style=&quot;margin: 0px; margin-left: 8px;&quot;&gt;Fromdatum&lt;/p&gt;&lt;p style=&quot;margin: 0px; margin-left: 8px;&quot;&gt;Tomdatum&lt;/p&gt;" style="verticalAlign=top;align=left;overflow=fill;fontSize=12;fontFamily=Helvetica;html=1;strokeColor=#003366;shadow=0;fillColor=#CC99FF;fontColor=#003366" parent="yMqSgsh0TC7EGv7iNOsN-355" vertex="1"><mxGeometry width="160" height="79.28571428571429" as="geometry"/></mxCell><mxCell id="yMqSgsh0TC7EGv7iNOsN-320" value="&lt;p style=&quot;margin: 0px; margin-top: 4px; text-align: center; text-decoration: underline;&quot;&gt;&lt;b&gt;Relationstypningar (tagg)&lt;/b&gt;&lt;/p&gt;" style="verticalAlign=top;align=left;overflow=fill;fontSize=12;fontFamily=Helvetica;html=1;strokeColor=#000000;shadow=0;fillColor=#FFFFFF;fontColor=#003366" parent="yMqSgsh0TC7EGv7iNOsN-355" vertex="1"><mxGeometry y="79.28571428571429" width="160" height="19.821428571428573" as="geometry"/></mxCell><mxCell id="yMqSgsh0TC7EGv7iNOsN-321" value="&lt;p style=&quot;margin: 0px; margin-top: 4px; text-align: center; text-decoration: underline;&quot;&gt;&lt;b&gt;Strukturtypningar (tagg)&lt;/b&gt;&lt;/p&gt;" style="verticalAlign=top;align=left;overflow=fill;fontSize=12;fontFamily=Helvetica;html=1;strokeColor=#000000;shadow=0;fillColor=#FFFFFF;fontColor=#003366" parent="yMqSgsh0TC7EGv7iNOsN-355" vertex="1"><mxGeometry y="99.11" width="160" height="20.98" as="geometry"/></mxCell><mxCell id="yMqSgsh0TC7EGv7iNOsN-356" value="" style="group" parent="1" vertex="1" connectable="0"><mxGeometry x="960" y="396.25" width="160" height="120" as="geometry"/></mxCell><mxCell id="19" value="&lt;p style=&quot;margin: 0px; margin-top: 4px; text-align: center; text-decoration: underline;&quot;&gt;&lt;strong&gt;Orgenhet (aktör)&lt;/strong&gt;&lt;/p&gt;&lt;hr&gt;&lt;p style=&quot;margin: 0px; margin-left: 8px;&quot;&gt;Id&lt;/p&gt;&lt;p style=&quot;margin: 0px; margin-left: 8px;&quot;&gt;Name&lt;/p&gt;" style="verticalAlign=top;align=left;overflow=fill;fontSize=12;fontFamily=Helvetica;html=1;strokeColor=#003366;shadow=0;fillColor=#CC99FF;fontColor=#003366" parent="yMqSgsh0TC7EGv7iNOsN-356" vertex="1"><mxGeometry width="160" height="80" as="geometry"/></mxCell><mxCell id="yMqSgsh0TC7EGv7iNOsN-253" value="&lt;p style=&quot;margin: 0px; margin-top: 4px; text-align: center; text-decoration: underline;&quot;&gt;&lt;strong&gt;Kontaktvägar&lt;/strong&gt;&lt;/p&gt;" style="verticalAlign=top;align=left;overflow=fill;fontSize=12;fontFamily=Helvetica;html=1;strokeColor=#003366;shadow=0;fillColor=#FFCCCC;fontColor=#003366" parent="yMqSgsh0TC7EGv7iNOsN-356" vertex="1"><mxGeometry y="80" width="160" height="20" as="geometry"/></mxCell><mxCell id="yMqSgsh0TC7EGv7iNOsN-304" value="&lt;p style=&quot;margin: 0px; margin-top: 4px; text-align: center; text-decoration: underline;&quot;&gt;&lt;b&gt;Typningar (tagg)&lt;/b&gt;&lt;/p&gt;" style="verticalAlign=top;align=left;overflow=fill;fontSize=12;fontFamily=Helvetica;html=1;strokeColor=#000000;shadow=0;fillColor=#FFFFFF;fontColor=#003366" parent="yMqSgsh0TC7EGv7iNOsN-356" vertex="1"><mxGeometry y="100" width="160" height="20" as="geometry"/></mxCell><mxCell id="yMqSgsh0TC7EGv7iNOsN-277" value="" style="endArrow=none;startArrow=ERone;html=1;rounded=0;startFill=0;endFill=0;orthogonal=0;jumpStyle=none;" parent="yMqSgsh0TC7EGv7iNOsN-356" source="19" target="yMqSgsh0TC7EGv7iNOsN-253" edge="1"><mxGeometry width="50" height="50" relative="1" as="geometry"><mxPoint x="2240" y="1376.25" as="sourcePoint"/><mxPoint x="2240" y="1486.25" as="targetPoint"/></mxGeometry></mxCell><mxCell id="yMqSgsh0TC7EGv7iNOsN-358" value="" style="group" parent="1" vertex="1" connectable="0"><mxGeometry x="400" y="653.75" width="160" height="140" as="geometry"/></mxCell><mxCell id="yMqSgsh0TC7EGv7iNOsN-269" value="&lt;p style=&quot;margin: 0px; margin-top: 4px; text-align: center; text-decoration: underline;&quot;&gt;&lt;strong&gt;Typningar (Tagg)&lt;/strong&gt;&lt;/p&gt;" style="verticalAlign=top;align=left;overflow=fill;fontSize=12;fontFamily=Helvetica;html=1;strokeColor=#000000;shadow=0;fillColor=#FFFFFF;fontColor=#003366" parent="yMqSgsh0TC7EGv7iNOsN-358" vertex="1"><mxGeometry y="120" width="160" height="20" as="geometry"/></mxCell><mxCell id="yMqSgsh0TC7EGv7iNOsN-147" value="&lt;p style=&quot;margin: 0px; margin-top: 4px; text-align: center; text-decoration: underline;&quot;&gt;&lt;strong&gt;Rolltilldelningsperiod&lt;/strong&gt;&lt;/p&gt;&lt;hr&gt;&lt;p style=&quot;margin: 0px; margin-left: 8px;&quot;&gt;Id&lt;/p&gt;&lt;p style=&quot;margin: 0px; margin-left: 8px;&quot;&gt;&lt;span style=&quot;background-color: initial;&quot;&gt;Fromdatum&lt;/span&gt;&lt;br&gt;&lt;/p&gt;&lt;p style=&quot;margin: 0px; margin-left: 8px;&quot;&gt;Tomdatum&lt;/p&gt;" style="verticalAlign=top;align=left;overflow=fill;fontSize=12;fontFamily=Helvetica;html=1;strokeColor=#003366;shadow=0;fillColor=#CCFF99;fontColor=#003366" parent="yMqSgsh0TC7EGv7iNOsN-358" vertex="1"><mxGeometry width="160" height="100" as="geometry"/></mxCell><mxCell id="yMqSgsh0TC7EGv7iNOsN-251" value="&lt;p style=&quot;margin: 0px; margin-top: 4px; text-align: center; text-decoration: underline;&quot;&gt;&lt;strong&gt;Kontaktvägar&lt;/strong&gt;&lt;/p&gt;" style="verticalAlign=top;align=left;overflow=fill;fontSize=12;fontFamily=Helvetica;html=1;strokeColor=#003366;shadow=0;fillColor=#FFCCCC;fontColor=#003366" parent="yMqSgsh0TC7EGv7iNOsN-358" vertex="1"><mxGeometry y="100" width="160" height="20" as="geometry"/></mxCell><mxCell id="yMqSgsh0TC7EGv7iNOsN-344" style="edgeStyle=none;rounded=0;jumpStyle=none;orthogonalLoop=1;jettySize=auto;html=1;strokeColor=#B3B3B3;startArrow=ERone;startFill=0;endArrow=ERzeroToMany;endFill=0;" parent="yMqSgsh0TC7EGv7iNOsN-358" source="yMqSgsh0TC7EGv7iNOsN-251" target="yMqSgsh0TC7EGv7iNOsN-147" edge="1"><mxGeometry relative="1" as="geometry"/></mxCell><mxCell id="yMqSgsh0TC7EGv7iNOsN-326" value="" style="edgeStyle=none;rounded=0;jumpStyle=none;orthogonalLoop=1;jettySize=auto;html=1;strokeColor=#B3B3B3;startArrow=ERzeroToMany;startFill=0;endArrow=ERoneToMany;endFill=0;" parent="yMqSgsh0TC7EGv7iNOsN-358" source="yMqSgsh0TC7EGv7iNOsN-251" target="yMqSgsh0TC7EGv7iNOsN-147" edge="1"><mxGeometry relative="1" as="geometry"/></mxCell><mxCell id="yMqSgsh0TC7EGv7iNOsN-360" value="" style="group" parent="1" vertex="1" connectable="0"><mxGeometry x="270" y="510" width="160" height="120" as="geometry"/></mxCell><mxCell id="yMqSgsh0TC7EGv7iNOsN-361" value="&lt;p style=&quot;margin: 0px; margin-top: 4px; text-align: center; text-decoration: underline;&quot;&gt;&lt;strong&gt;Beräknat ansvar/ledarskap&lt;/strong&gt;&lt;/p&gt;&lt;hr&gt;&lt;p style=&quot;margin: 0px; margin-left: 8px;&quot;&gt;Id&lt;/p&gt;&lt;p style=&quot;margin: 0px; margin-left: 8px;&quot;&gt;&lt;span style=&quot;background-color: initial;&quot;&gt;Fromdatum&lt;/span&gt;&lt;br&gt;&lt;/p&gt;&lt;p style=&quot;margin: 0px; margin-left: 8px;&quot;&gt;Tomdatum&lt;/p&gt;" style="verticalAlign=top;align=left;overflow=fill;fontSize=12;fontFamily=Helvetica;html=1;strokeColor=#003366;shadow=0;fillColor=#CCFF99;fontColor=#003366" parent="yMqSgsh0TC7EGv7iNOsN-360" vertex="1"><mxGeometry width="160" height="90" as="geometry"/></mxCell><mxCell id="yMqSgsh0TC7EGv7iNOsN-362" value="&lt;p style=&quot;margin: 0px; margin-top: 4px; text-align: center; text-decoration: underline;&quot;&gt;&lt;b&gt;Typningar (tagg)&lt;/b&gt;&lt;/p&gt;" style="verticalAlign=top;align=left;overflow=fill;fontSize=12;fontFamily=Helvetica;html=1;strokeColor=#000000;shadow=0;fillColor=#FFFFFF;fontColor=#003366" parent="yMqSgsh0TC7EGv7iNOsN-360" vertex="1"><mxGeometry y="90" width="160" height="20" as="geometry"/></mxCell><mxCell id="yMqSgsh0TC7EGv7iNOsN-363" value="" style="endArrow=ERzeroToMany;startArrow=ERone;html=1;rounded=0;startFill=0;endFill=0;orthogonal=0;jumpStyle=none;edgeStyle=orthogonalEdgeStyle;exitX=0;exitY=0.25;exitDx=0;exitDy=0;entryX=0.25;entryY=0;entryDx=0;entryDy=0;" parent="1" source="21" target="yMqSgsh0TC7EGv7iNOsN-361" edge="1"><mxGeometry width="50" height="50" relative="1" as="geometry"><mxPoint x="185" y="629.95" as="sourcePoint"/><mxPoint x="585" y="606.2" as="targetPoint"/></mxGeometry></mxCell><mxCell id="yMqSgsh0TC7EGv7iNOsN-365" value="Ansvarar för&lt;br&gt;/ Leder" style="edgeLabel;html=1;align=center;verticalAlign=middle;resizable=0;points=[];" parent="yMqSgsh0TC7EGv7iNOsN-363" vertex="1" connectable="0"><mxGeometry x="-0.6695" y="-2" relative="1" as="geometry"><mxPoint x="7" y="-21" as="offset"/></mxGeometry></mxCell><mxCell id="yMqSgsh0TC7EGv7iNOsN-364" value="Ansvarig&lt;br&gt;/ Ledare" style="edgeLabel;html=1;align=center;verticalAlign=middle;resizable=0;points=[];" parent="yMqSgsh0TC7EGv7iNOsN-363" vertex="1" connectable="0"><mxGeometry x="0.7651" y="-1" relative="1" as="geometry"><mxPoint y="-36" as="offset"/></mxGeometry></mxCell><mxCell id="yMqSgsh0TC7EGv7iNOsN-369" value="Ansvarad för&lt;br&gt;/Ledd av" style="edgeLabel;html=1;align=center;verticalAlign=middle;resizable=0;points=[];" parent="yMqSgsh0TC7EGv7iNOsN-363" vertex="1" connectable="0"><mxGeometry x="-0.6695" y="-2" relative="1" as="geometry"><mxPoint x="7" y="49" as="offset"/></mxGeometry></mxCell><mxCell id="yMqSgsh0TC7EGv7iNOsN-366" value="" style="endArrow=ERzeroToMany;startArrow=ERone;html=1;rounded=0;startFill=0;endFill=0;orthogonal=0;jumpStyle=none;edgeStyle=orthogonalEdgeStyle;exitX=0;exitY=0.75;exitDx=0;exitDy=0;entryX=0.5;entryY=0;entryDx=0;entryDy=0;" parent="1" source="21" target="yMqSgsh0TC7EGv7iNOsN-361" edge="1"><mxGeometry width="50" height="50" relative="1" as="geometry"><mxPoint x="410" y="322.5" as="sourcePoint"/><mxPoint x="320" y="520" as="targetPoint"/></mxGeometry></mxCell><mxCell id="yMqSgsh0TC7EGv7iNOsN-367" value="Ansvarad&lt;br&gt;/Ledd" style="edgeLabel;html=1;align=center;verticalAlign=middle;resizable=0;points=[];" parent="yMqSgsh0TC7EGv7iNOsN-366" vertex="1" connectable="0"><mxGeometry x="0.7651" y="-1" relative="1" as="geometry"><mxPoint x="1" y="-18" as="offset"/></mxGeometry></mxCell><mxCell id="48kwzW6LIblIkYZXHWR8-21" value="" style="endArrow=ERzeroToMany;startArrow=ERone;html=1;rounded=0;startFill=0;endFill=0;orthogonal=0;jumpStyle=none;edgeStyle=orthogonalEdgeStyle;exitX=0.838;exitY=0.95;exitDx=0;exitDy=0;exitPerimeter=0;" parent="1" source="yMqSgsh0TC7EGv7iNOsN-268" target="yMqSgsh0TC7EGv7iNOsN-140" edge="1"><mxGeometry width="50" height="50" relative="1" as="geometry"><mxPoint x="530" y="723.75" as="sourcePoint"/><mxPoint x="930" y="700" as="targetPoint"/><Array as="points"><mxPoint x="534" y="565"/><mxPoint x="680" y="565"/><mxPoint x="680" y="705"/></Array></mxGeometry></mxCell><mxCell id="48kwzW6LIblIkYZXHWR8-22" value="Personligt ansvar" style="edgeLabel;html=1;align=center;verticalAlign=middle;resizable=0;points=[];" parent="48kwzW6LIblIkYZXHWR8-21" vertex="1" connectable="0"><mxGeometry x="0.7651" y="-1" relative="1" as="geometry"><mxPoint x="-30" as="offset"/></mxGeometry></mxCell><mxCell id="48kwzW6LIblIkYZXHWR8-24" value="Personliga&lt;br&gt;ansvar" style="edgeLabel;html=1;align=center;verticalAlign=middle;resizable=0;points=[];" parent="48kwzW6LIblIkYZXHWR8-21" vertex="1" connectable="0"><mxGeometry x="-0.8504" y="1" relative="1" as="geometry"><mxPoint as="offset"/></mxGeometry></mxCell></root></mxGraphModel></diagram></mxfile>